HIERARCHY
ROOT root
{
	OFFSET 0.000000 0.000000 0.000000
	CHANNELS 6 Xposition Yposition Zposition Zrotation Yrotation Xrotation
	JOINT lhip
	{
		OFFSET 0.058581 -0.082280 -0.017664
		CHANNELS 3 Zrotation Yrotation Xrotation
		JOINT lknee
		{
			OFFSET 0.043451 -0.386469 0.008037
			CHANNELS 3 Zrotation Yrotation Xrotation
			JOINT lankle
			{
				OFFSET -0.014790 -0.426874 -0.037428
				CHANNELS 3 Zrotation Yrotation Xrotation
				JOINT ltoe
				{
					OFFSET 0.041054 -0.060286 0.122042
					CHANNELS 3 Zrotation Yrotation Xrotation
					End Site
					{
						OFFSET 0.000000 0.000000 0.000000
					}
				}
			}
		}
	}
	JOINT rhip
	{
		OFFSET -0.060310 -0.090513 -0.013543
		CHANNELS 3 Zrotation Yrotation Xrotation
		JOINT rknee
		{
			OFFSET -0.043257 -0.383688 -0.004843
			CHANNELS 3 Zrotation Yrotation Xrotation
			JOINT rankle
			{
				OFFSET 0.019056 -0.420046 -0.034562
				CHANNELS 3 Zrotation Yrotation Xrotation
				JOINT rtoe
				{
					OFFSET -0.034840 -0.062106 0.130323
					CHANNELS 3 Zrotation Yrotation Xrotation
					End Site
					{
						OFFSET 0.000000 0.000000 0.000000
					}
				}
			}
		}
	}
	JOINT lowerback
	{
		OFFSET 0.004439 0.124404 -0.038385
		CHANNELS 3 Zrotation Yrotation Xrotation
		JOINT upperback
		{
			OFFSET 0.004488 0.137956 0.026820
			CHANNELS 3 Zrotation Yrotation Xrotation
			JOINT chest
			{
				OFFSET -0.002265 0.056032 0.002855
				CHANNELS 3 Zrotation Yrotation Xrotation
				JOINT lowerneck
				{
					OFFSET -0.013390 0.211636 -0.033468
					CHANNELS 3 Zrotation Yrotation Xrotation
					JOINT upperneck
					{
						OFFSET 0.010113 0.088937 0.050410
						CHANNELS 3 Zrotation Yrotation Xrotation
						End Site
						{
							OFFSET 0.000000 0.000000 0.000000
						}
					}
				}
				JOINT lclavicle
				{
					OFFSET 0.071702 0.114000 -0.018898
					CHANNELS 3 Zrotation Yrotation Xrotation
					JOINT lshoulder
					{
						OFFSET 0.122921 0.045205 -0.019046
						CHANNELS 3 Zrotation Yrotation Xrotation
						JOINT lelbow
						{
							OFFSET 0.255332 -0.015649 -0.022946
							CHANNELS 3 Zrotation Yrotation Xrotation
							JOINT lwrist
							{
								OFFSET 0.265709 0.012698 -0.007375
								CHANNELS 3 Zrotation Yrotation Xrotation
								End Site
								{
									OFFSET 0.000000 0.000000 0.000000
								}
							}
						}
					}
				}
				JOINT rclavicle
				{
					OFFSET -0.082954 0.112472 -0.023707
					CHANNELS 3 Zrotation Yrotation Xrotation
					JOINT rshoulder
					{
						OFFSET -0.113228 0.046853 -0.008472
						CHANNELS 3 Zrotation Yrotation Xrotation
						JOINT relbow
						{
							OFFSET -0.260127 -0.014369 -0.031269
							CHANNELS 3 Zrotation Yrotation Xrotation
							JOINT rwrist
							{
								OFFSET -0.269108 0.006794 -0.006027
								CHANNELS 3 Zrotation Yrotation Xrotation
								End Site
								{
									OFFSET 0.000000 0.000000 0.000000
								}
							}
						}
					}
				}
			}
		}
	}
}
MOTION
Frames: 16
Frame Time: 0.033333
-1.895837 0.658151 0.989071 -40.570922 -0.006267 77.950848 -13.008407 -5.357363 11.276638 -4.215595 -16.888441 14.554381 10.836574 26.261112 -13.379284 0.000000 -0.000000 0.000000 -1.223557 9.181335 -9.324425 9.346274 14.679023 40.187345 6.514761 -4.439520 -15.993218 0.000000 -0.000000 0.000000 2.887371 0.357782 1.362604 4.031236 1.335038 0.022421 0.775428 4.229717 3.037060 -1.894518 -5.625765 8.063860 -1.955098 -10.006637 -18.398564 1.519102 6.588983 -12.567550 -15.011603 -5.441854 -16.362673 17.945274 -3.448840 -32.883946 -10.107399 8.780439 -0.953544 6.204381 1.508845 -6.011272 26.457763 11.316277 -5.594397 -26.107620 6.827233 -23.721615 -0.027744 -9.894522 9.107070 
-1.901840 0.658579 0.992421 -32.447222 -0.576541 78.341042 -12.874131 -6.634996 10.337918 -6.227193 -19.527227 17.312408 10.999926 24.803075 -12.169111 0.000000 -0.000000 0.000000 -1.299393 9.570810 -8.287188 7.933376 19.664970 32.179554 6.993431 -4.143052 -17.035791 0.000000 -0.000000 0.000000 1.488104 2.499778 0.272446 3.204721 1.679980 1.064817 0.602181 5.604077 3.896358 -1.866029 -5.794382 8.597595 0.715438 -11.866450 -18.679317 5.149397 3.591467 -13.996001 -11.841227 -6.603532 -13.316403 15.508927 -6.120175 -26.875242 -4.470167 9.697720 3.361298 4.259186 4.487615 -5.289212 28.197176 8.475679 -2.889460 -25.598448 11.120588 -20.870468 -3.863194 -7.874362 8.496150 
-1.908639 0.658993 0.996613 -22.307835 -0.650450 78.999621 -12.105076 -7.202999 8.532241 -7.992762 -20.219181 20.641649 11.200812 22.873224 -11.067819 0.000000 -0.000000 0.000000 -1.735243 8.422081 -6.741909 5.180204 21.721117 24.781967 6.917216 -2.921505 -16.697564 0.000000 -0.000000 0.000000 1.405411 4.040986 0.327249 1.705576 1.537579 1.136988 -0.311669 6.044480 3.454217 -3.056426 -4.388444 8.409718 3.199275 -12.040235 -16.678948 8.603271 -0.098834 -14.749789 -10.312496 -9.143513 -14.756295 18.226422 -9.897950 -17.916198 -10.299536 9.564059 8.020377 0.655555 7.051068 -2.826711 32.119814 4.810813 -0.203364 -24.781943 16.462903 -5.385215 0.600111 -10.608764 10.450101 
-1.915750 0.659738 1.000139 -9.889245 -0.181890 79.745017 -11.090821 -8.055752 7.033608 -9.008219 -21.027150 23.283043 11.983939 21.539358 -9.584848 0.000000 -0.000000 0.000000 -1.892436 7.239316 -4.562205 3.736609 23.252606 19.475591 7.532790 -3.184843 -15.779846 0.000000 -0.000000 0.000000 0.916733 5.712320 -0.358763 0.512946 1.893910 2.067534 -0.875606 6.550302 2.732009 -3.593210 -3.009685 9.020465 5.412554 -9.882968 -15.014800 10.490059 -4.201684 -17.619848 -7.674565 -15.506831 -11.808514 15.972330 -16.190491 -9.070851 -7.322379 10.337196 13.757610 -1.087265 8.705429 -1.226495 31.944521 -2.126404 5.689252 -16.788510 20.707847 11.910048 5.903032 -12.871158 11.653478 
-1.924518 0.660929 1.002099 4.713385 0.720671 80.918746 -8.714272 -8.048019 4.408126 -10.308854 -20.482448 26.117968 11.591902 20.147268 -9.603842 0.000000 -0.000000 0.000000 -1.361044 5.235081 -2.743360 2.454512 22.648552 16.796644 7.339970 -5.259770 -16.377764 0.000000 -0.000000 0.000000 0.330496 6.729952 -0.361097 -0.524915 1.870178 2.425847 -1.669670 6.833144 1.366738 -3.056705 0.180630 7.783746 7.631919 -5.173864 -12.025071 10.358182 -9.654179 -20.170640 -3.672338 -22.440396 -8.461075 13.305779 -24.670399 -0.297930 -4.856283 10.956563 20.498781 0.678148 10.115963 0.720051 31.289528 -8.422316 10.822909 -8.704738 21.856348 25.722682 14.451866 -17.551017 13.893958 
-1.934843 0.662090 1.003113 19.998963 1.592649 82.434068 -6.072612 -8.985729 1.610255 -10.958918 -17.892504 27.035132 11.142897 19.790530 -10.318354 0.000000 -0.000000 0.000000 -0.830693 2.684220 -0.401948 1.304931 18.362535 13.577318 6.153231 -8.054891 -17.821734 0.000000 -0.000000 0.000000 -1.064238 7.682037 -0.460090 -0.733393 1.358393 2.339474 -0.989448 6.468068 1.033139 -3.616191 3.972223 5.906597 9.310371 -0.596163 -10.459564 10.214145 -13.702029 -20.990088 -4.589831 -28.357521 -6.268839 14.053295 -36.424781 2.749649 -0.215928 8.922166 21.025534 2.041614 11.347883 3.482655 34.125434 -13.026144 13.154455 -3.439593 20.832001 34.116827 21.660259 -20.277907 12.128642 
-1.944166 0.662674 1.001287 35.514307 2.117013 83.780023 -4.449350 -9.046859 -0.686478 -9.433603 -15.800505 26.710837 10.978779 19.597712 -11.833681 0.000000 -0.000000 0.000000 0.462540 -0.789771 2.279596 -0.619075 12.700887 10.168823 4.326595 -11.805224 -19.590340 0.000000 -0.000000 0.000000 -1.758752 8.428340 -0.306819 -1.336188 0.848740 3.206609 -0.643455 6.322995 0.305839 -4.587916 5.907215 4.059886 10.760411 2.835555 -9.977971 8.657179 -17.334833 -20.740460 -6.244468 -34.045571 -4.533706 18.247233 -50.416342 1.221259 6.425986 5.047697 21.970018 4.562007 11.823191 5.435207 37.965992 -17.831365 14.653840 -0.227293 21.197097 39.001757 22.401052 -20.358238 14.753211 
-1.955698 0.663800 0.998198 50.456214 1.955268 85.070559 -3.245888 -8.816752 -4.287097 -8.405832 -12.894586 27.712806 9.502742 17.684491 -14.967658 0.000000 -0.000000 0.000000 1.761386 -3.802346 3.509172 -1.852337 7.243427 8.325696 3.808303 -12.860518 -21.713269 0.000000 -0.000000 0.000000 -2.330036 9.489056 1.287802 -2.009641 0.689031 2.297979 -0.505620 5.613885 -0.123563 -5.503063 5.599137 3.011235 11.813401 2.518329 -8.463479 6.721725 -19.612929 -20.489658 -8.986988 -40.260447 -2.481230 22.980192 -62.653581 0.256762 9.086333 -0.334260 21.326596 7.279884 12.130925 6.890679 42.853319 -20.352543 15.548765 1.052745 20.669442 41.480414 21.697854 -19.003671 15.043731 
-1.965335 0.664205 0.994250 65.035106 1.393949 85.403202 -2.313896 -9.012542 -6.904729 -9.226949 -10.792001 28.931894 8.005892 14.869598 -17.233664 0.000000 -0.000000 0.000000 2.520830 -5.821087 5.086814 -2.455754 1.841820 7.407703 3.052347 -13.312495 -22.474190 0.000000 -0.000000 0.000000 -2.333151 9.585896 3.735960 -2.552776 0.304421 0.889989 -0.715441 5.260369 0.431749 -6.338679 3.487207 1.840714 12.873008 -0.258165 -6.998435 5.612568 -20.373924 -20.233158 -13.972909 -45.597365 0.889963 33.183175 -72.760436 -6.878669 10.057807 -4.556272 18.030095 8.873132 12.393100 6.660632 47.574749 -20.580240 16.533827 2.203531 19.267599 42.953331 21.796930 -17.660369 14.047558 
-1.972812 0.664076 0.990706 79.087417 0.978530 85.267223 -1.691196 -8.784658 -9.412121 -8.331324 -7.781612 30.937087 7.239720 14.307393 -19.034759 0.000000 -0.000000 0.000000 3.101324 -8.578978 6.689099 -2.650741 -4.255344 6.186656 2.924174 -14.480142 -23.383403 0.000000 -0.000000 0.000000 -2.584949 9.839455 5.635087 -2.431193 -0.317572 -0.240431 -0.506940 4.837438 0.748219 -6.309861 -0.047292 2.483115 13.657557 -4.402759 -5.578317 4.591478 -21.056768 -18.953444 -19.082032 -48.846418 5.193614 56.559103 -81.225946 -27.038895 13.315181 -7.662597 14.871512 10.789269 12.558436 6.537070 50.134021 -20.302818 16.558255 2.953782 18.290164 42.621580 18.945030 -15.277160 13.859640 
-1.978498 0.662446 0.988367 91.142707 0.627843 84.953703 -0.670709 -7.901168 -11.456004 -4.247360 -0.954882 32.717203 9.114970 18.430611 -19.399902 0.000000 -0.000000 0.000000 3.767399 -11.443912 8.043019 -2.997589 -9.057017 4.952036 2.490690 -15.922097 -23.221349 0.000000 -0.000000 0.000000 -3.525893 10.560255 5.817722 -1.795418 -0.481659 -0.087500 0.126387 4.209637 1.228459 -6.368733 -4.305083 4.149959 14.709988 -8.438245 -4.826217 4.313584 -20.385835 -17.165367 -22.473870 -50.148005 8.155747 134.176028 -84.342631 -102.831415 13.330232 -8.999271 8.382732 11.720164 12.378999 5.760474 51.482268 -18.403193 16.588084 2.769592 17.706330 41.914364 19.612350 -14.806832 13.991336 
-1.981162 0.660555 0.986479 100.668571 -0.003983 84.801494 0.302634 -5.915276 -11.923978 -2.828294 0.966020 31.636630 9.164337 17.928236 -18.408939 0.000000 -0.000000 0.000000 4.051957 -13.607244 8.020774 -3.632784 -12.424083 5.623043 2.054573 -17.127024 -23.335584 0.000000 -0.000000 0.000000 -5.090421 10.854176 5.608917 -1.447793 -0.326915 -0.663020 0.704653 4.123580 1.545166 -6.150265 -8.014183 7.525916 16.060835 -11.948320 -4.993896 3.986338 -18.665440 -15.561124 -22.245983 -49.186352 9.750670 179.809902 -77.832356 -147.035660 14.630000 -10.221966 4.638728 12.868888 12.888508 5.389876 51.073920 -15.974093 16.226909 3.030968 17.138647 39.713811 19.601325 -14.198135 14.447156 
-1.981314 0.660071 0.983866 108.177317 -0.358479 84.328427 1.251859 -4.662825 -11.910305 -3.236880 -0.617031 30.530893 7.698202 17.213066 -18.610610 0.000000 -0.000000 0.000000 4.068311 -15.144308 8.154530 -3.975622 -15.226633 6.836880 1.799054 -19.091844 -24.132363 0.000000 -0.000000 0.000000 -6.306552 11.216345 4.742321 -1.094711 -0.062976 -0.093114 1.024793 4.478218 1.719240 -5.253346 -11.643532 10.615739 17.134624 -15.774856 -5.237590 3.708662 -16.734699 -14.765008 -19.878379 -46.957916 10.426637 -169.095254 -71.510184 -157.635662 15.127439 -10.814503 0.536269 13.468439 13.460705 4.227410 49.232594 -13.968234 15.761974 3.390843 17.374029 37.154728 19.653015 -13.437514 13.473994 
-1.979086 0.660381 0.981230 114.015974 -0.319870 83.839277 2.344881 -5.210295 -12.109213 -2.607358 -0.837269 30.887526 6.121091 17.506147 -18.394577 0.000000 -0.000000 0.000000 4.461484 -15.817693 8.583979 -4.147386 -17.755308 7.613731 1.160271 -20.654235 -23.777153 0.000000 -0.000000 0.000000 -6.777525 11.201760 4.212945 -0.820984 0.268548 -0.038297 1.010477 5.488303 1.666483 -4.690033 -15.002428 13.297343 17.931745 -19.786861 -4.865564 4.696773 -13.451258 -13.885392 -19.766819 -44.149808 11.510967 -165.139790 -67.487506 -161.896812 11.636233 -11.774031 -6.010628 12.556209 13.616882 3.559535 48.301477 -11.712663 15.245650 3.195315 17.925630 35.137384 22.254973 -13.241960 10.143919 
-1.977072 0.663062 0.978672 118.407160 -0.655442 83.060546 2.543798 -6.902372 -10.949139 -3.965883 -2.694658 29.315317 3.153054 15.019435 -18.882282 0.000000 -0.000000 0.000000 3.901460 -15.557562 8.617280 -4.421083 -19.944577 10.040866 1.493396 -21.140012 -24.580460 0.000000 -0.000000 0.000000 -7.179025 11.407326 3.734793 -0.578908 0.962036 0.969470 0.789560 6.284666 1.539924 -3.140907 -17.446722 14.982562 18.187114 -24.001983 -5.535678 5.038954 -9.439866 -13.310326 -20.811489 -41.431947 13.220460 -163.610102 -66.066611 -164.328133 4.455379 -12.745572 -11.712062 11.561577 13.118846 2.533463 46.027686 -8.441470 14.958189 3.996461 17.852083 33.434229 26.022504 -12.942248 5.091650 
-1.974561 0.665127 0.977569 120.884820 -0.920156 82.188228 2.201641 -7.330933 -9.876766 -5.124012 -4.007590 28.586632 3.417542 15.085145 -18.821468 0.000000 -0.000000 0.000000 3.430754 -15.197052 8.713830 -4.748183 -19.416187 12.467345 0.555897 -22.200017 -24.377005 0.000000 -0.000000 0.000000 -7.101045 11.683576 3.135372 -0.526872 2.112240 2.011291 0.672202 6.688668 1.803222 -2.846801 -20.543473 16.626065 18.236278 -26.090987 -5.777463 4.148596 -6.192712 -11.959124 -20.936465 -36.653860 13.484173 -163.627809 -65.837025 -165.472689 -0.940557 -11.898290 -15.574103 10.790847 13.567316 2.104353 44.127147 -5.371170 13.871482 2.585568 18.769467 29.559049 29.191255 -13.299646 3.553074 
